<svg width="1228" height="469" viewBox="0 0 1228 469" fill="none" xmlns="http://www.w3.org/2000/svg">
<path opacity="0.15" d="M683.287 258.857C565.471 174.219 403.106 273.124 274.429 206.143C207.479 171.293 193.901 139.845 145.858 87.8571C115.043 54.512 112.105 48.707 82.858 24.8571C53.6105 1.00726 0.572266 -26.5714 0.572266 -26.5714V-114H1385.29V468.429H1054.86C1054.86 468.429 878.373 471.178 793.858 399C742.455 355.101 743.597 302.184 683.287 258.857Z" fill="white"/>
<path opacity="0.15" d="M730.857 230.857C613.041 146.219 450.676 266.981 322 200C255.049 165.15 220 41.6428 200.5 5.14282C189.815 -14.8572 173.5 -32.8572 147 -46.8572C120.5 -60.8572 48.1426 -54.5714 48.1426 -54.5714V-142H1432.86V403.857H1123C1123 403.857 905.714 410.857 835 360.714C773.285 316.953 791.168 274.184 730.857 230.857Z" fill="white"/>
</svg>
